<svg width="48" height="48" viewBox="0 0 48 48" fill="none" xmlns="http://www.w3.org/2000/svg">
<path d="M24.8249 24.4875H27.5999C28.0492 24.4867 28.4799 24.3079 28.7976 23.9902C29.1153 23.6725 29.2941 23.2418 29.2949 22.7925V20.0175C29.2941 19.5682 29.1153 19.1375 28.7976 18.8198C28.4799 18.5021 28.0492 18.3233 27.5999 18.3225H24.8249C24.6022 18.3223 24.3817 18.366 24.176 18.4511C23.9703 18.5362 23.7833 18.6611 23.6259 18.8185C23.4685 18.976 23.3436 19.1629 23.2585 19.3686C23.1734 19.5744 23.1297 19.7949 23.1299 20.0175V22.7925C23.1297 23.0152 23.1734 23.2357 23.2585 23.4414C23.3436 23.6471 23.4685 23.8341 23.6259 23.9915C23.7833 24.1489 23.9703 24.2738 24.176 24.3589C24.3817 24.444 24.6022 24.4877 24.8249 24.4875ZM24.6299 20.0175C24.629 19.9917 24.6335 19.9659 24.643 19.9419C24.6525 19.9179 24.6669 19.896 24.6851 19.8778C24.7034 19.8595 24.7252 19.8452 24.7493 19.8357C24.7733 19.8261 24.799 19.8217 24.8249 19.8225H27.5999C27.6255 19.8223 27.651 19.8272 27.6747 19.8369C27.6985 19.8467 27.7201 19.861 27.7382 19.8792C27.7564 19.8973 27.7707 19.9189 27.7804 19.9427C27.7902 19.9664 27.7951 19.9918 27.7949 20.0175V22.7925C27.7939 22.8439 27.7731 22.893 27.7367 22.9293C27.7003 22.9657 27.6513 22.9865 27.5999 22.9875H24.8249C24.7992 22.9877 24.7738 22.9828 24.75 22.9731C24.7263 22.9633 24.7047 22.949 24.6866 22.9308C24.6684 22.9127 24.654 22.8911 24.6443 22.8674C24.6346 22.8436 24.6297 22.8182 24.6299 22.7925V20.0175Z" fill="black"/>
<path d="M36.5776 24.4875H39.3601C39.8094 24.4867 40.2401 24.3079 40.5578 23.9902C40.8755 23.6725 41.0543 23.2418 41.0551 22.7925V20.0175C41.0543 19.5682 40.8755 19.1375 40.5578 18.8198C40.2401 18.5021 39.8094 18.3233 39.3601 18.3225H36.5776C36.1292 18.3237 35.6995 18.5029 35.3831 18.8207C35.0666 19.1386 34.8893 19.569 34.8901 20.0175V22.7925C34.8893 23.241 35.0666 23.6715 35.3831 23.9893C35.6995 24.3071 36.1292 24.4863 36.5776 24.4875ZM36.3901 20.0175C36.3891 19.9923 36.3932 19.9671 36.4022 19.9435C36.4112 19.9198 36.4248 19.8983 36.4423 19.8801C36.4598 19.8618 36.4809 19.8474 36.5041 19.8375C36.5274 19.8276 36.5524 19.8225 36.5776 19.8225H39.3601C39.3858 19.8223 39.4112 19.8272 39.435 19.8369C39.4587 19.8467 39.4803 19.861 39.4985 19.8792C39.5166 19.8973 39.531 19.9189 39.5407 19.9427C39.5504 19.9664 39.5553 19.9918 39.5551 20.0175V22.7925C39.5542 22.8439 39.5333 22.893 39.497 22.9293C39.4606 22.9657 39.4116 22.9865 39.3601 22.9875H36.5776C36.527 22.9863 36.4788 22.9652 36.4437 22.9286C36.4086 22.8921 36.3893 22.8432 36.3901 22.7925V20.0175Z" fill="black"/>
<path d="M24.8249 33.1728H27.5999C28.0488 33.1706 28.4786 32.9914 28.796 32.674C29.1134 32.3566 29.2927 31.9267 29.2949 31.4778V28.6953C29.2925 28.2472 29.1129 27.8182 28.7953 27.5021C28.4778 27.1859 28.048 27.0082 27.5999 27.0078H24.8249C24.3764 27.007 23.9459 27.1843 23.6281 27.5007C23.3103 27.8172 23.1311 28.2468 23.1299 28.6953V31.4778C23.1307 31.9271 23.3095 32.3578 23.6272 32.6755C23.9449 32.9932 24.3756 33.172 24.8249 33.1728ZM24.6299 28.6953C24.6299 28.67 24.6349 28.645 24.6448 28.6218C24.6547 28.5985 24.6692 28.5775 24.6874 28.56C24.7056 28.5425 24.7272 28.5288 24.7508 28.5199C24.7744 28.5109 24.7996 28.5068 24.8249 28.5078H27.5999C27.6506 28.507 27.6995 28.5263 27.736 28.5614C27.7725 28.5965 27.7937 28.6447 27.7949 28.6953V31.4778C27.7939 31.5292 27.7731 31.5783 27.7367 31.6146C27.7003 31.651 27.6513 31.6719 27.5999 31.6728H24.8249C24.7992 31.673 24.7738 31.6681 24.75 31.6584C24.7263 31.6487 24.7047 31.6343 24.6866 31.6161C24.6684 31.598 24.654 31.5764 24.6443 31.5527C24.6346 31.5289 24.6297 31.5035 24.6299 31.4778V28.6953Z" fill="black"/>
<path d="M36.5776 33.1728H39.3601C39.809 33.1706 40.2389 32.9914 40.5563 32.674C40.8737 32.3566 41.053 31.9267 41.0551 31.4778V28.6953C41.0528 28.2472 40.8732 27.8182 40.5556 27.502C40.238 27.1859 39.8083 27.0082 39.3601 27.0078H36.5776C36.1303 27.0084 35.7014 27.1864 35.3851 27.5027C35.0687 27.8191 34.8907 28.2479 34.8901 28.6953V31.4778C34.8905 31.9259 35.0682 32.3557 35.3844 32.6733C35.7005 32.9909 36.1295 33.1704 36.5776 33.1728ZM36.3901 28.6953C36.3899 28.6706 36.3946 28.6462 36.404 28.6233C36.4134 28.6005 36.4272 28.5797 36.4446 28.5623C36.4621 28.5448 36.4828 28.531 36.5056 28.5217C36.5285 28.5123 36.553 28.5076 36.5776 28.5078H39.3601C39.4108 28.507 39.4597 28.5263 39.4963 28.5614C39.5328 28.5965 39.554 28.6447 39.5551 28.6953V31.4778C39.5542 31.5292 39.5333 31.5783 39.497 31.6146C39.4606 31.651 39.4116 31.6719 39.3601 31.6728H36.5776C36.527 31.6716 36.4788 31.6505 36.4437 31.6139C36.4086 31.5774 36.3893 31.5285 36.3901 31.4778V28.6953Z" fill="black"/>
<path d="M45.8775 14.7602L43.965 14.4227V8.6026C43.9638 8.4269 43.9019 8.25702 43.7899 8.12171C43.6778 7.9864 43.5224 7.89398 43.35 7.86009L21.6675 3.84755C21.5592 3.82917 21.4481 3.8344 21.342 3.86287C21.2358 3.89135 21.1371 3.9424 21.0525 4.01255C20.9675 4.08279 20.8992 4.17104 20.8525 4.27092C20.8058 4.37079 20.7819 4.4798 20.7825 4.59005V10.3201L19.185 10.0351V3.47254C19.185 3.27363 19.106 3.08286 18.9653 2.94221C18.8247 2.80155 18.6339 2.72253 18.435 2.72253H2.25C2.05109 2.72253 1.86032 2.80155 1.71967 2.94221C1.57902 3.08286 1.5 3.27363 1.5 3.47254V44.528C1.5 44.7269 1.57902 44.9177 1.71967 45.0583C1.86032 45.199 2.05109 45.278 2.25 45.278H45.75C45.9489 45.278 46.1397 45.199 46.2803 45.0583C46.421 44.9177 46.5 44.7269 46.5 44.528V15.5027C46.4996 15.3256 46.4371 15.1543 46.3233 15.0186C46.2096 14.8829 46.0518 14.7914 45.8775 14.7602ZM17.685 41.4155C17.685 41.423 17.6775 41.423 17.6775 41.4305C17.6775 41.438 17.685 41.4454 17.685 41.4529V43.778H3V41.2504H17.685V41.4155ZM17.685 35.6854H3V4.22255H17.685V35.6854ZM35.22 43.778H29.5275V39.2929C29.5077 38.9069 29.5666 38.5208 29.7007 38.1582C29.8348 37.7956 30.0412 37.4641 30.3075 37.1838C30.5737 36.9036 30.8942 36.6804 31.2494 36.5279C31.6046 36.3754 31.9872 36.2967 32.3738 36.2967C32.7603 36.2967 33.1429 36.3754 33.4981 36.5279C33.8533 36.6804 34.1738 36.9036 34.44 37.1838C34.7063 37.4641 34.9127 37.7956 35.0468 38.1582C35.1809 38.5208 35.2398 38.9069 35.22 39.2929V43.778ZM45 40.6804H36.72V39.2929C36.7443 38.707 36.65 38.1221 36.4425 37.5736C36.2351 37.0251 35.9188 36.5241 35.5129 36.1009C35.1069 35.6777 34.6195 35.341 34.0801 35.1109C33.5406 34.8809 32.9602 34.7623 32.3738 34.7623C31.7873 34.7623 31.2069 34.8809 30.6674 35.1109C30.128 35.341 29.6406 35.6777 29.2346 36.1009C28.8287 36.5241 28.5124 37.0251 28.305 37.5736C28.0975 38.1221 28.0032 38.707 28.0275 39.2929V40.6804H19.185V11.5576L45 16.1327V40.6804Z" fill="black"/>
<path d="M8.51268 13.695H12.1727C12.592 13.6936 12.9937 13.5264 13.2901 13.23C13.5866 12.9335 13.7538 12.5318 13.7552 12.1125V8.4525C13.7538 8.03322 13.5866 7.6315 13.2901 7.33503C12.9937 7.03855 12.592 6.87138 12.1727 6.87H8.51268C8.0934 6.87138 7.69169 7.03855 7.39521 7.33503C7.09873 7.6315 6.93156 8.03322 6.93018 8.4525V12.1125C6.93156 12.5318 7.09873 12.9335 7.39521 13.23C7.69169 13.5264 8.0934 13.6936 8.51268 13.695ZM8.43018 8.4525C8.43037 8.43068 8.43913 8.4098 8.45456 8.39438C8.46999 8.37895 8.49086 8.37019 8.51268 8.37H12.1727C12.1945 8.37019 12.2154 8.37895 12.2308 8.39438C12.2462 8.4098 12.255 8.43068 12.2552 8.4525V12.1125C12.255 12.1343 12.2462 12.1552 12.2308 12.1706C12.2154 12.186 12.1945 12.1948 12.1727 12.195H8.51268C8.49086 12.1948 8.46999 12.186 8.45456 12.1706C8.43913 12.1552 8.43037 12.1343 8.43018 12.1125V8.4525Z" fill="black"/>
<path d="M8.51268 23.6625H12.1727C12.592 23.6611 12.9937 23.494 13.2901 23.1975C13.5866 22.901 13.7538 22.4993 13.7552 22.08V18.42C13.7538 18.0007 13.5866 17.599 13.2901 17.3026C12.9937 17.0061 12.592 16.8389 12.1727 16.8375H8.51268C8.0934 16.8389 7.69169 17.0061 7.39521 17.3026C7.09873 17.599 6.93156 18.0007 6.93018 18.42V22.08C6.93156 22.4993 7.09873 22.901 7.39521 23.1975C7.69169 23.494 8.0934 23.6611 8.51268 23.6625ZM8.43018 18.42C8.43037 18.3982 8.43913 18.3773 8.45456 18.3619C8.46999 18.3465 8.49086 18.3377 8.51268 18.3375H12.1727C12.1945 18.3377 12.2154 18.3465 12.2308 18.3619C12.2462 18.3773 12.255 18.3982 12.2552 18.42V22.08C12.255 22.1018 12.2462 22.1227 12.2308 22.1381C12.2154 22.1536 12.1945 22.1623 12.1727 22.1625H8.51268C8.49086 22.1623 8.46999 22.1536 8.45456 22.1381C8.43913 22.1227 8.43037 22.1018 8.43018 22.08V18.42Z" fill="black"/>
<path d="M8.51268 33.6303H12.1727C12.592 33.6289 12.9937 33.4617 13.2901 33.1653C13.5866 32.8688 13.7538 32.4671 13.7552 32.0478V28.3878C13.7538 27.9685 13.5866 27.5668 13.2901 27.2703C12.9937 26.9739 12.592 26.8067 12.1727 26.8053H8.51268C8.0934 26.8067 7.69169 26.9739 7.39521 27.2703C7.09873 27.5668 6.93156 27.9685 6.93018 28.3878V32.0478C6.93156 32.4671 7.09873 32.8688 7.39521 33.1653C7.69169 33.4617 8.0934 33.6289 8.51268 33.6303ZM8.43018 28.3878C8.43037 28.366 8.43913 28.3451 8.45456 28.3297C8.46999 28.3142 8.49086 28.3055 8.51268 28.3053H12.1727C12.1945 28.3055 12.2154 28.3142 12.2308 28.3297C12.2462 28.3451 12.255 28.366 12.2552 28.3878V32.0478C12.255 32.0696 12.2462 32.0905 12.2308 32.1059C12.2154 32.1213 12.1945 32.1301 12.1727 32.1303H8.51268C8.49086 32.1301 8.46999 32.1213 8.45456 32.1059C8.43913 32.0905 8.43037 32.0696 8.43018 32.0478V28.3878Z" fill="black"/>
</svg>
