<svg width="48" height="48" viewBox="0 0 48 48" fill="none" xmlns="http://www.w3.org/2000/svg">
<path d="M45.75 5.69996H27.7725L24.5475 2.24243C24.4762 2.1694 24.3911 2.11137 24.2971 2.07175C24.203 2.03213 24.102 2.01172 24 2.01172C23.898 2.01172 23.797 2.03213 23.7029 2.07175C23.6089 2.11137 23.5238 2.1694 23.4525 2.24243L20.22 5.69996H2.25C2.05109 5.69996 1.86032 5.77898 1.71967 5.91964C1.57902 6.06029 1.5 6.25106 1.5 6.44997V12.21C1.5 12.4089 1.57902 12.5997 1.71967 12.7404C1.86032 12.881 2.05109 12.96 2.25 12.96H5.6625V21.3151L2.205 25.0277C2.07265 25.1672 2 25.3529 2.0025 25.5452V45.2479C2.0025 45.4468 2.08152 45.6376 2.22217 45.7782C2.36282 45.9189 2.55359 45.9979 2.7525 45.9979H45.2475C45.4464 45.9979 45.6372 45.9189 45.7778 45.7782C45.9185 45.6376 45.9975 45.4468 45.9975 45.2479V25.5452C45.9965 25.3535 45.9244 25.1691 45.795 25.0277L42.3225 21.3076V12.96H45.75C45.9489 12.96 46.1397 12.881 46.2803 12.7404C46.421 12.5997 46.5 12.4089 46.5 12.21V6.44997C46.5 6.25106 46.421 6.06029 46.2803 5.91964C46.1397 5.77898 45.9489 5.69996 45.75 5.69996ZM3 11.46V7.19998H18.825L14.8575 11.46H3ZM16.035 44.4979H3.5025V40.8378H16.035V44.4979ZM29.1525 40.8153C29.1525 41.0143 29.0735 41.205 28.9328 41.3457C28.7922 41.4863 28.6014 41.5653 28.4025 41.5653C28.2036 41.5653 28.0128 41.4863 27.8722 41.3457C27.7315 41.205 27.6525 41.0143 27.6525 40.8153V37.2978C27.6525 37.0989 27.7315 36.9081 27.8722 36.7675C28.0128 36.6268 28.2036 36.5478 28.4025 36.5478C28.6014 36.5478 28.7922 36.6268 28.9328 36.7675C29.0735 36.9081 29.1525 37.0989 29.1525 37.2978V40.8153ZM30.465 30.7127H17.535V25.2977H30.465V30.7127ZM44.4975 44.4979H31.965V40.8378H44.4975V44.4979ZM44.4975 25.8377V39.3378H31.965V24.5477C31.965 24.3488 31.886 24.158 31.7453 24.0173C31.6047 23.8767 31.4139 23.7977 31.215 23.7977H16.785C16.5861 23.7977 16.3953 23.8767 16.2547 24.0173C16.114 24.158 16.035 24.3488 16.035 24.5477V39.3378H3.5025V25.8377L6.9375 22.1551C6.945 22.1476 6.945 22.1401 6.9525 22.1326L24 3.85495L32.265 12.72L32.2875 12.7425L41.0025 22.0876C41.0252 22.1194 41.0503 22.1495 41.0775 22.1776L44.4975 25.8377ZM45 11.46H33.135L29.175 7.19998H45V11.46Z" fill="black"/>
<path d="M30.6675 13.4025H17.3325C17.1336 13.4025 16.9428 13.4815 16.8022 13.6221C16.6615 13.7628 16.5825 13.9536 16.5825 14.1525V19.6725C16.5825 19.8714 16.6615 20.0621 16.8022 20.2028C16.9428 20.3434 17.1336 20.4225 17.3325 20.4225H30.6675C30.8664 20.4225 31.0572 20.3434 31.1978 20.2028C31.3385 20.0621 31.4175 19.8714 31.4175 19.6725V14.1525C31.4175 13.9536 31.3385 13.7628 31.1978 13.6221C31.0572 13.4815 30.8664 13.4025 30.6675 13.4025ZM29.9175 18.9225H18.0825V14.9025H29.9175V18.9225Z" fill="black"/>
</svg>
