<svg width="48" height="48" viewBox="0 0 48 48" fill="none" xmlns="http://www.w3.org/2000/svg">
<path d="M45.0674 40.3204H42.5249V7.19256C42.5249 6.99365 42.4459 6.80288 42.3052 6.66223C42.1646 6.52157 41.9738 6.44255 41.7749 6.44255H20.0399V2.25001C20.0399 2.05109 19.9609 1.86033 19.8202 1.71967C19.6796 1.57902 19.4888 1.5 19.2899 1.5H6.22487C6.02596 1.5 5.8352 1.57902 5.69454 1.71967C5.55389 1.86033 5.47487 2.05109 5.47487 2.25001V40.3204H2.93237C2.73346 40.3204 2.5427 40.3994 2.40204 40.5401C2.26139 40.6807 2.18237 40.8715 2.18237 41.0704V45.7505C2.18237 45.9494 2.26139 46.1402 2.40204 46.2808C2.5427 46.4215 2.73346 46.5005 2.93237 46.5005H45.0674C45.2663 46.5005 45.4571 46.4215 45.5977 46.2808C45.7384 46.1402 45.8174 45.9494 45.8174 45.7505V41.0704C45.8174 40.8715 45.7384 40.6807 45.5977 40.5401C45.4571 40.3994 45.2663 40.3204 45.0674 40.3204ZM20.0399 7.94257H41.0249V40.3204H38.1749V30.4203C38.1749 30.2214 38.0959 30.0306 37.9552 29.89C37.8146 29.7493 37.6238 29.6703 37.4249 29.6703H23.6399C23.441 29.6703 23.2502 29.7493 23.1095 29.89C22.9689 30.0306 22.8899 30.2214 22.8899 30.4203V40.3204H20.0399V7.94257ZM36.6749 31.1703V40.3204H31.2824V31.1703H36.6749ZM29.7824 31.1703V40.3204H24.3899V31.1703H29.7824ZM14.2499 9.69009C14.051 9.69009 13.8602 9.61107 13.7195 9.47042C13.5789 9.32976 13.4999 9.13899 13.4999 8.94008V7.86007H12.0149V8.94008C12.0149 9.13899 11.9359 9.32976 11.7952 9.47042C11.6546 9.61107 11.4638 9.69009 11.2649 9.69009C11.066 9.69009 10.8752 9.61107 10.7345 9.47042C10.5939 9.32976 10.5149 9.13899 10.5149 8.94008V5.27254C10.5149 5.07363 10.5939 4.88286 10.7345 4.7422C10.8752 4.60155 11.066 4.52253 11.2649 4.52253C11.4638 4.52253 11.6546 4.60155 11.7952 4.7422C11.9359 4.88286 12.0149 5.07363 12.0149 5.27254V6.36005H13.4999V5.27254C13.4999 5.07363 13.5789 4.88286 13.7195 4.7422C13.8602 4.60155 14.051 4.52253 14.2499 4.52253C14.4488 4.52253 14.6396 4.60155 14.7802 4.7422C14.9209 4.88286 14.9999 5.07363 14.9999 5.27254V8.94008C14.9999 9.13899 14.9209 9.32976 14.7802 9.47042C14.6396 9.61107 14.4488 9.69009 14.2499 9.69009ZM14.9999 12.7501V14.1076C14.9999 14.7024 14.7636 15.2728 14.3431 15.6933C13.9225 16.1139 13.3521 16.3502 12.7574 16.3502C12.1626 16.3502 11.5922 16.1139 11.1717 15.6933C10.7511 15.2728 10.5149 14.7024 10.5149 14.1076V12.7501C10.5149 12.1554 10.7511 11.585 11.1717 11.1644C11.5922 10.7439 12.1626 10.5076 12.7574 10.5076C13.3521 10.5076 13.9225 10.7439 14.3431 11.1644C14.7636 11.585 14.9999 12.1554 14.9999 12.7501ZM11.0249 17.6627H14.4899C14.6888 17.6627 14.8796 17.7417 15.0202 17.8823C15.1609 18.023 15.2399 18.2138 15.2399 18.4127C15.2399 18.6116 15.1609 18.8024 15.0202 18.943C14.8796 19.0837 14.6888 19.1627 14.4899 19.1627H13.5074V22.6577C13.5074 22.8566 13.4284 23.0474 13.2877 23.1881C13.1471 23.3287 12.9563 23.4077 12.7574 23.4077C12.5585 23.4077 12.3677 23.3287 12.227 23.1881C12.0864 23.0474 12.0074 22.8566 12.0074 22.6577V19.1627H11.0249C10.826 19.1627 10.6352 19.0837 10.4945 18.943C10.3539 18.8024 10.2749 18.6116 10.2749 18.4127C10.2749 18.2138 10.3539 18.023 10.4945 17.8823C10.6352 17.7417 10.826 17.6627 11.0249 17.6627ZM13.6274 27.1278C13.8263 27.1278 14.0171 27.2068 14.1577 27.3474C14.2984 27.4881 14.3774 27.6789 14.3774 27.8778C14.3774 28.0767 14.2984 28.2675 14.1577 28.4081C14.0171 28.5488 13.8263 28.6278 13.6274 28.6278H12.6299V29.6703H13.6274C13.8263 29.6703 14.0171 29.7493 14.1577 29.89C14.2984 30.0306 14.3774 30.2214 14.3774 30.4203C14.3774 30.6192 14.2984 30.81 14.1577 30.9506C14.0171 31.0913 13.8263 31.1703 13.6274 31.1703H11.8799C11.681 31.1703 11.4902 31.0913 11.3495 30.9506C11.2089 30.81 11.1299 30.6192 11.1299 30.4203V25.3428C11.1299 25.1438 11.2089 24.9531 11.3495 24.8124C11.4902 24.6718 11.681 24.5927 11.8799 24.5927H13.6274C13.8263 24.5927 14.0171 24.6718 14.1577 24.8124C14.2984 24.9531 14.3774 25.1438 14.3774 25.3428C14.3774 25.5417 14.2984 25.7324 14.1577 25.8731C14.0171 26.0137 13.8263 26.0928 13.6274 26.0928H12.6299V27.1278H13.6274ZM11.2874 33.7503C11.2874 33.5514 11.3664 33.3607 11.507 33.22C11.6477 33.0794 11.8385 33.0003 12.0374 33.0003C12.2363 33.0003 12.4271 33.0794 12.5677 33.22C12.7084 33.3607 12.7874 33.5514 12.7874 33.7503V37.2454H14.2124C14.4113 37.2454 14.6021 37.3244 14.7427 37.4651C14.8834 37.6057 14.9624 37.7965 14.9624 37.9954C14.9624 38.1943 14.8834 38.3851 14.7427 38.5257C14.6021 38.6664 14.4113 38.7454 14.2124 38.7454H12.0374C11.8385 38.7454 11.6477 38.6664 11.507 38.5257C11.3664 38.3851 11.2874 38.1943 11.2874 37.9954V33.7503ZM44.3174 45.0005H3.68237V41.8204H44.3174V45.0005Z" fill="black"/>
<path d="M12.7576 12.0076C12.5608 12.008 12.3722 12.0863 12.233 12.2255C12.0939 12.3646 12.0155 12.5533 12.0151 12.7501V14.1076C12.0151 14.3045 12.0934 14.4933 12.2326 14.6326C12.3719 14.7718 12.5607 14.8501 12.7576 14.8501C12.9546 14.8501 13.1434 14.7718 13.2827 14.6326C13.4219 14.4933 13.5001 14.3045 13.5001 14.1076V12.7501C13.4982 12.5538 13.4193 12.366 13.2805 12.2272C13.1417 12.0884 12.954 12.0095 12.7576 12.0076Z" fill="black"/>
<path d="M23.0249 15.6526H27.5249C27.7238 15.6526 27.9146 15.5736 28.0552 15.4329C28.1959 15.2923 28.2749 15.1015 28.2749 14.9026V10.4026C28.2749 10.2037 28.1959 10.0129 28.0552 9.87226C27.9146 9.73161 27.7238 9.65259 27.5249 9.65259H23.0249C22.826 9.65259 22.6352 9.73161 22.4946 9.87226C22.3539 10.0129 22.2749 10.2037 22.2749 10.4026V14.9026C22.2749 15.1015 22.3539 15.2923 22.4946 15.4329C22.6352 15.5736 22.826 15.6526 23.0249 15.6526ZM23.7749 11.1526H26.7749V14.1526H23.7749V11.1526Z" fill="black"/>
<path d="M33.54 15.6526H38.04C38.239 15.6526 38.4297 15.5736 38.5704 15.4329C38.711 15.2923 38.79 15.1015 38.79 14.9026V10.4026C38.79 10.2037 38.711 10.0129 38.5704 9.87226C38.4297 9.73161 38.239 9.65259 38.04 9.65259H33.54C33.3411 9.65259 33.1504 9.73161 33.0097 9.87226C32.8691 10.0129 32.79 10.2037 32.79 10.4026V14.9026C32.79 15.1015 32.8691 15.2923 33.0097 15.4329C33.1504 15.5736 33.3411 15.6526 33.54 15.6526ZM34.29 11.1526H37.29V14.1526H34.29V11.1526Z" fill="black"/>
<path d="M27.5249 24.6599C27.7238 24.6599 27.9146 24.5809 28.0552 24.4402C28.1959 24.2996 28.2749 24.1088 28.2749 23.9099V19.4099C28.2749 19.211 28.1959 19.0202 28.0552 18.8796C27.9146 18.7389 27.7238 18.6599 27.5249 18.6599H23.0249C22.826 18.6599 22.6352 18.7389 22.4946 18.8796C22.3539 19.0202 22.2749 19.211 22.2749 19.4099V23.9099C22.2749 24.1088 22.3539 24.2996 22.4946 24.4402C22.6352 24.5809 22.826 24.6599 23.0249 24.6599H27.5249ZM23.7749 20.1599H26.7749V23.1599H23.7749V20.1599Z" fill="black"/>
<path d="M33.54 24.6599H38.04C38.239 24.6599 38.4297 24.5809 38.5704 24.4402C38.711 24.2996 38.79 24.1088 38.79 23.9099V19.4099C38.79 19.211 38.711 19.0202 38.5704 18.8796C38.4297 18.7389 38.239 18.6599 38.04 18.6599H33.54C33.3411 18.6599 33.1504 18.7389 33.0097 18.8796C32.8691 19.0202 32.79 19.211 32.79 19.4099V23.9099C32.79 24.1088 32.8691 24.2996 33.0097 24.4402C33.1504 24.5809 33.3411 24.6599 33.54 24.6599ZM34.29 20.1599H37.29V23.1599H34.29V20.1599Z" fill="black"/>
</svg>
