<svg width="48" height="48" viewBox="0 0 48 48" fill="none" xmlns="http://www.w3.org/2000/svg">
<path d="M44.1075 29.3703C43.9659 29.2298 43.7745 29.1509 43.575 29.1509C43.3755 29.1509 43.1841 29.2298 43.0425 29.3703L37.155 35.2579H26.955V26.8803H29.7825C29.9814 26.8803 30.1722 26.8013 30.3128 26.6606C30.4535 26.5199 30.5325 26.3292 30.5325 26.1303V21.7877C30.5325 21.5888 30.4535 21.398 30.3128 21.2574C30.1722 21.1167 29.9814 21.0377 29.7825 21.0377H26.955V16.7027H38.0775C38.2764 16.7027 38.4672 16.6236 38.6078 16.483C38.7485 16.3423 38.8275 16.1516 38.8275 15.9527C38.8231 12.1209 37.2991 8.44736 34.5896 5.73791C31.8802 3.02846 28.2067 1.50437 24.375 1.5H23.625C19.7933 1.50437 16.1198 3.02846 13.4104 5.73791C10.7009 8.44736 9.17687 12.1209 9.1725 15.9527C9.1725 16.1516 9.25152 16.3423 9.39217 16.483C9.53282 16.6236 9.72359 16.7027 9.9225 16.7027H21.045V21.0377H18.405C18.2061 21.0377 18.0153 21.1167 17.8747 21.2574C17.734 21.398 17.655 21.5888 17.655 21.7877V26.1303C17.655 26.3292 17.734 26.5199 17.8747 26.6606C18.0153 26.8013 18.2061 26.8803 18.405 26.8803H21.045V35.2579H6.2775C6.07859 35.2579 5.88782 35.3369 5.74717 35.4775C5.60652 35.6182 5.5275 35.809 5.5275 36.0079V38.3404H2.25C2.05109 38.3404 1.86032 38.4194 1.71967 38.5601C1.57902 38.7007 1.5 38.8915 1.5 39.0904V42.0979C1.5 42.2968 1.57902 42.4876 1.71967 42.6283C1.86032 42.7689 2.05109 42.8479 2.25 42.8479H4.7025V45.7505C4.7025 45.9494 4.78152 46.1402 4.92217 46.2808C5.06282 46.4215 5.25359 46.5005 5.4525 46.5005H8.175C8.37391 46.5005 8.56468 46.4215 8.70533 46.2808C8.84598 46.1402 8.925 45.9494 8.925 45.7505V42.8479H14.2875C14.1409 43.2233 14.0647 43.6225 14.0625 44.0255V45.7505C14.0625 45.9494 14.1415 46.1402 14.2822 46.2808C14.4228 46.4215 14.6136 46.5005 14.8125 46.5005H33.375C33.5739 46.5005 33.7647 46.4215 33.9053 46.2808C34.046 46.1402 34.125 45.9494 34.125 45.7505V44.0255C34.1228 43.6225 34.0466 43.2233 33.9 42.8479H35.9475V45.7505C35.9475 45.9494 36.0265 46.1402 36.1672 46.2808C36.3078 46.4215 36.4986 46.5005 36.6975 46.5005H39.42C39.6189 46.5005 39.8097 46.4215 39.9503 46.2808C40.091 46.1402 40.17 45.9494 40.17 45.7505V42.8479H42.645C42.8439 42.8479 43.0347 42.7689 43.1753 42.6283C43.316 42.4876 43.395 42.2968 43.395 42.0979V39.0904C43.395 38.8915 43.316 38.7007 43.1753 38.5601C43.0347 38.4194 42.8439 38.3404 42.645 38.3404H40.545L46.2825 32.6103C46.423 32.4687 46.5019 32.2773 46.5019 32.0778C46.5019 31.8783 46.423 31.6869 46.2825 31.5453L44.1075 29.3703ZM10.695 15.2026C10.8705 12.2607 12.0435 9.46653 14.0205 7.2809C15.9975 5.09527 18.6604 3.64878 21.57 3.18002C19.275 5.24254 15.93 9.30758 16.3725 15.2026H10.695ZM17.88 15.2026C17.295 8.26507 22.455 4.19253 23.9775 3.15752C25.8181 4.54854 27.2775 6.382 28.2202 8.48773C29.1629 10.5935 29.5584 12.9032 29.37 15.2026H17.88ZM25.455 16.7027V21.0377H22.545V16.7027H25.455ZM19.155 25.3803V22.5377H29.0325V25.3803H19.155ZM25.455 26.8803V35.2579H22.545V26.8803H25.455ZM32.625 45.0005H15.5625V44.0255C15.5619 43.5961 15.7103 43.18 15.9825 42.8479H32.205C32.4772 43.18 32.6256 43.5961 32.625 44.0255V45.0005ZM41.895 39.8404V41.3479H3V39.8404H41.895ZM38.43 38.3404H7.0275V36.7579H37.4625C37.6613 36.7564 37.852 36.6785 37.995 36.5404L43.575 30.9603L44.6925 32.0778L38.43 38.3404Z" fill="black"/>
</svg>
