<svg width="48" height="48" viewBox="0 0 48 48" fill="none" xmlns="http://www.w3.org/2000/svg">
<path d="M4.73274 16.0126V39.6529H4.50024C4.02988 39.6521 3.57843 39.8381 3.24513 40.17C2.91183 40.5019 2.72394 40.9525 2.72274 41.4229V43.8379C2.72373 44.309 2.91132 44.7606 3.24446 45.0937C3.57759 45.4268 4.02912 45.6144 4.50024 45.6154H43.6727C44.1439 45.6144 44.5954 45.4268 44.9285 45.0937C45.2617 44.7606 45.4492 44.309 45.4502 43.8379V41.4229C45.449 40.9525 45.2612 40.5019 44.9279 40.17C44.5946 39.8381 44.1431 39.6521 43.6727 39.6529H43.5527V14.6026H43.6277C43.9661 14.6028 44.2981 14.5102 44.5875 14.3347C44.8768 14.1592 45.1125 13.9077 45.2688 13.6076C45.425 13.3074 45.4959 12.9701 45.4737 12.6324C45.4515 12.2948 45.337 11.9697 45.1427 11.6926L40.8227 5.56501C40.6536 5.32189 40.4282 5.12329 40.1657 4.98616C39.9032 4.84904 39.6114 4.77744 39.3152 4.7775H16.0427L14.3927 3.07498C13.9427 2.65564 13.3504 2.42249 12.7352 2.42249C12.1201 2.42249 11.5278 2.65564 11.0777 3.07498L2.14524 12.3001C1.77443 12.6846 1.54859 13.1859 1.50627 13.7184C1.46396 14.2509 1.6078 14.7815 1.91323 15.2198C2.21867 15.658 2.66675 15.9766 3.18098 16.1212C3.6952 16.2658 4.24367 16.2274 4.73274 16.0126ZM6.23274 25.6952V14.7151L12.7352 7.98753L19.2377 14.7076V25.6952H6.23274ZM19.2377 30.4053V39.6529H16.4702V34.8903C16.4702 33.8609 16.0613 32.8737 15.3335 32.1458C14.6056 31.4179 13.6184 31.009 12.589 31.009C11.5596 31.009 10.5724 31.4179 9.84453 32.1458C9.11666 32.8737 8.70774 33.8609 8.70774 34.8903V39.6529H6.23274V30.4053H19.2377ZM14.9702 34.8903V39.6529H10.2077V34.8903C10.2077 34.2588 10.4586 33.6531 10.9052 33.2065C11.3518 32.7599 11.9574 32.509 12.589 32.509C13.2205 32.509 13.8262 32.7599 14.2728 33.2065C14.7194 33.6531 14.9702 34.2588 14.9702 34.8903ZM23.8502 14.6026H42.0527V32.4153H20.7377V16.0126C21.03 16.1449 21.3469 16.2139 21.6677 16.2151C22.2673 16.2149 22.8431 15.9808 23.2727 15.5626C23.5427 15.2961 23.7413 14.966 23.8502 14.6026ZM42.0527 33.9153V39.6529H20.7377V33.9153H42.0527ZM3.22524 13.3426L12.1577 4.11749C12.3169 3.9762 12.5224 3.89818 12.7352 3.89818C12.9481 3.89818 13.1536 3.9762 13.3127 4.11749L15.1877 6.04501C15.1877 6.05251 15.1952 6.06001 15.2027 6.06751L22.2452 13.3426C22.3924 13.4968 22.4733 13.7025 22.4705 13.9157C22.4676 14.1288 22.3814 14.3323 22.2302 14.4826C22.0748 14.6273 21.8696 14.7065 21.6572 14.7037C21.4449 14.7009 21.2418 14.6163 21.0902 14.4676L13.2752 6.39002C13.2045 6.31872 13.1204 6.26213 13.0277 6.22351C12.9351 6.1849 12.8356 6.16501 12.7352 6.16501C12.6348 6.16501 12.5354 6.1849 12.4427 6.22351C12.3501 6.26213 12.2659 6.31872 12.1952 6.39002L4.38774 14.4676C4.2369 14.6141 4.03494 14.6962 3.82465 14.6963C3.61436 14.6965 3.41226 14.6149 3.26115 14.4686C3.11003 14.3224 3.02178 14.1231 3.01508 13.9129C3.00838 13.7027 3.08375 13.4982 3.22524 13.3426Z" fill="black"/>
<path d="M24.1202 22.3425H28.9502C29.1491 22.3425 29.3398 22.2634 29.4805 22.1228C29.6211 21.9821 29.7002 21.7914 29.7002 21.5925V16.7625C29.7002 16.5635 29.6211 16.3728 29.4805 16.2321C29.3398 16.0915 29.1491 16.0125 28.9502 16.0125H24.1202C23.9212 16.0125 23.7305 16.0915 23.5898 16.2321C23.4492 16.3728 23.3702 16.5635 23.3702 16.7625V21.5925C23.3692 21.6912 23.3879 21.7892 23.4252 21.8806C23.4625 21.9721 23.5177 22.0552 23.5876 22.125C23.6574 22.1949 23.7405 22.2501 23.832 22.2874C23.9234 22.3247 24.0214 22.3435 24.1202 22.3425ZM24.8702 17.5125H28.2002V20.8425H24.8702V17.5125Z" fill="black"/>
<path d="M33.8401 22.3425H38.6776C38.8765 22.3425 39.0673 22.2634 39.2079 22.1228C39.3486 21.9821 39.4276 21.7914 39.4276 21.5925V16.7625C39.4276 16.5635 39.3486 16.3728 39.2079 16.2321C39.0673 16.0915 38.8765 16.0125 38.6776 16.0125H33.8401C33.6412 16.0125 33.4504 16.0915 33.3098 16.2321C33.1691 16.3728 33.0901 16.5635 33.0901 16.7625V21.5925C33.0901 21.7914 33.1691 21.9821 33.3098 22.1228C33.4504 22.2634 33.6412 22.3425 33.8401 22.3425ZM34.5901 17.5125H37.9276V20.8425H34.5901V17.5125Z" fill="black"/>
<path d="M24.1201 30.4052H28.9501C29.149 30.4052 29.3398 30.3262 29.4804 30.1856C29.6211 30.0449 29.7001 29.8542 29.7001 29.6552V24.8177C29.7001 24.6188 29.6211 24.4281 29.4804 24.2874C29.3398 24.1468 29.149 24.0677 28.9501 24.0677H24.1201C23.9212 24.0677 23.7304 24.1468 23.5898 24.2874C23.4491 24.4281 23.3701 24.6188 23.3701 24.8177V29.6552C23.3701 29.8542 23.4491 30.0449 23.5898 30.1856C23.7304 30.3262 23.9212 30.4052 24.1201 30.4052ZM24.8701 25.5677H28.2001V28.9052H24.8701V25.5677Z" fill="black"/>
<path d="M33.8401 30.4052H38.6776C38.8765 30.4052 39.0673 30.3262 39.2079 30.1856C39.3486 30.0449 39.4276 29.8542 39.4276 29.6552V24.8177C39.4276 24.6188 39.3486 24.4281 39.2079 24.2874C39.0673 24.1468 38.8765 24.0677 38.6776 24.0677H33.8401C33.6412 24.0677 33.4504 24.1468 33.3098 24.2874C33.1691 24.4281 33.0901 24.6188 33.0901 24.8177V29.6552C33.0901 29.8542 33.1691 30.0449 33.3098 30.1856C33.4504 30.3262 33.6412 30.4052 33.8401 30.4052ZM34.5901 25.5677H37.9276V28.9052H34.5901V25.5677Z" fill="black"/>
<path d="M12.5925 15.96C11.6973 15.9592 10.822 16.224 10.0772 16.7207C9.33247 17.2174 8.75174 17.9238 8.40848 18.7506C8.06521 19.5774 7.97482 20.4874 8.14874 21.3656C8.32266 22.2437 8.75308 23.0506 9.38556 23.6841C10.018 24.3176 10.8242 24.7494 11.702 24.9248C12.5799 25.1001 13.4901 25.0112 14.3174 24.6694C15.1448 24.3275 15.8521 23.7479 16.3501 23.004C16.8481 22.2601 17.1143 21.3852 17.115 20.49C17.1152 19.2898 16.639 18.1386 15.7911 17.2892C14.9431 16.4398 13.7927 15.9618 12.5925 15.96ZM12.5925 23.5125C11.9936 23.5132 11.408 23.3363 10.9098 23.004C10.4116 22.6718 10.0231 22.1992 9.79358 21.646C9.56407 21.0929 9.50382 20.4841 9.62047 19.8967C9.73712 19.3094 10.0254 18.7698 10.4489 18.3463C10.8723 17.9229 11.4119 17.6346 11.9993 17.5179C12.5867 17.4013 13.1955 17.4615 13.7486 17.691C14.3017 17.9206 14.7743 18.309 15.1065 18.8073C15.4388 19.3055 15.6157 19.8911 15.615 20.49C15.6136 21.2912 15.2947 22.0591 14.7282 22.6257C14.1617 23.1922 13.3937 23.5111 12.5925 23.5125Z" fill="black"/>
<path d="M25.2144 37.4689H36.2596C36.4585 37.4689 36.6493 37.3899 36.7899 37.2492C36.9306 37.1086 37.0096 36.9178 37.0096 36.7189C37.0096 36.52 36.9306 36.3292 36.7899 36.1885C36.6493 36.0479 36.4585 35.9689 36.2596 35.9689H25.2144C25.0154 35.9689 24.8247 36.0479 24.684 36.1885C24.5434 36.3292 24.4644 36.52 24.4644 36.7189C24.4644 36.9178 24.5434 37.1086 24.684 37.2492C24.8247 37.3899 25.0154 37.4689 25.2144 37.4689Z" fill="black"/>
</svg>
